<svg width="120" height="60" viewBox="0 0 120 60" fill="none" xmlns="http://www.w3.org/2000/svg">
<path d="M7.47018 3.76V6.58C7.77018 6.63 8.14018 6.66 8.30018 6.66C8.95018 6.66 9.64018 6.2 9.64018 5.26C9.64018 4.26 8.98018 3.69 8.20018 3.69C7.94018 3.69 7.72018 3.7 7.47018 3.76ZM8.18018 10H5.85018C5.73018 10 5.68018 9.94 5.68018 9.84C5.68018 9.74 5.73018 9.68 5.85018 9.68H5.98018C6.19018 9.68 6.37018 9.58 6.46018 9.43C6.53018 9.32 6.57018 9.13 6.57018 8.74V4.56C6.57018 4.22 6.53018 4 6.47018 3.88C6.37018 3.66 6.18018 3.59 6.03018 3.59H5.88018C5.74018 3.59 5.68018 3.54 5.68018 3.44C5.68018 3.34 5.74018 3.28 5.88018 3.28H7.94018C8.55018 3.28 9.03018 3.35 9.37018 3.47C10.0902 3.73 10.6502 4.38 10.6502 5.17C10.6502 6.25 9.87018 7.07 8.51018 7.07C8.15018 7.07 7.85018 7.03 7.47018 6.96V8.74C7.47018 9.13 7.50018 9.32 7.57018 9.43C7.67018 9.58 7.84018 9.68 8.06018 9.68H8.18018C8.29018 9.68 8.35018 9.74 8.35018 9.84C8.35018 9.94 8.30018 10 8.18018 10ZM28.015 7.8C28.015 6.58 27.535 5.34 26.435 5.34C25.815 5.34 25.145 5.93 25.145 7.28C25.145 8.5 25.625 9.75 26.725 9.75C27.355 9.75 28.015 9.15 28.015 7.8ZM28.955 7.53C28.955 8.92 28.095 10.15 26.535 10.15C25.115 10.15 24.205 8.89 24.205 7.55C24.205 6.16 25.065 4.94 26.625 4.94C28.045 4.94 28.955 6.19 28.955 7.53ZM44.217 2.96V8.9C44.217 9.17 44.207 9.3 44.297 9.48C44.367 9.59 44.507 9.7 44.727 9.7C44.847 9.7 44.927 9.76 44.927 9.85C44.927 9.94 44.867 10 44.727 10H42.837C42.687 10 42.637 9.94 42.637 9.85C42.637 9.76 42.707 9.7 42.827 9.7C42.917 9.7 43.097 9.67 43.187 9.63C43.297 9.57 43.357 9.49 43.357 8.92V4.59C43.357 4.19 43.357 3.94 43.337 3.81C43.307 3.64 43.247 3.58 43.127 3.58C43.067 3.58 42.997 3.59 42.927 3.61C42.807 3.64 42.697 3.64 42.667 3.55C42.637 3.47 42.687 3.39 42.797 3.34L43.947 2.85C44.127 2.77 44.217 2.84 44.217 2.96ZM62.9649 9.48C62.5749 9.99 62.2249 10.15 61.9349 10.15C61.6449 10.15 61.4449 10 61.3949 9.55C60.9149 9.85 60.4049 10.15 59.8049 10.15C59.0249 10.15 58.5549 9.49 58.5549 8.88C58.5549 8.31 58.8649 7.87 59.4149 7.55C59.7549 7.35 60.5749 7.1 61.3649 6.86V6.41C61.3649 5.55 60.9649 5.25 60.4849 5.25C60.1649 5.25 59.7049 5.42 59.7249 5.82L59.7349 6.05C59.7449 6.37 59.5249 6.56 59.2249 6.56C58.9249 6.56 58.7249 6.37 58.7249 6.07C58.7249 5.26 59.7349 4.94 60.5349 4.94C61.7449 4.94 62.2349 5.36 62.2349 6.38V8.49C62.2349 8.88 62.2449 9.11 62.2549 9.25C62.2649 9.4 62.2749 9.5 62.3549 9.5C62.4549 9.5 62.6249 9.37 62.7249 9.28C62.7949 9.22 62.8949 9.19 62.9649 9.24C63.0349 9.29 63.0449 9.37 62.9649 9.48ZM61.3649 9.13V7.2C60.7749 7.41 60.2349 7.62 60.0749 7.71C59.6249 7.95 59.4349 8.28 59.4349 8.69C59.4349 9.26 59.6749 9.57 60.1449 9.57C60.4149 9.57 60.9149 9.44 61.3649 9.13ZM77.0711 8.9V6.82C77.0711 6.66 77.0711 6.01 77.0411 5.86C77.0111 5.69 76.9211 5.66 76.8411 5.66C76.7811 5.66 76.7111 5.67 76.6411 5.69C76.5111 5.73 76.4211 5.71 76.3911 5.64C76.3611 5.56 76.3711 5.49 76.4811 5.44L77.6611 4.93C77.8411 4.85 77.9311 4.9 77.9311 5.04V5.71C78.3311 5.15 78.7511 4.94 79.1411 4.94C79.5711 4.94 79.8511 5.18 79.8511 5.48C79.8511 5.79 79.6311 5.95 79.3711 5.95C79.1311 5.95 79.0311 5.82 78.9311 5.75C78.8311 5.68 78.7711 5.62 78.6711 5.62C78.4211 5.62 78.1411 6 77.9311 6.31V8.89C77.9311 9.17 77.9411 9.33 77.9811 9.44C78.0211 9.55 78.0911 9.69 78.4711 9.71C78.5911 9.72 78.6711 9.76 78.6711 9.86C78.6711 9.95 78.6011 10 78.4611 10H76.6411C76.5111 10 76.4411 9.94 76.4411 9.85C76.4411 9.76 76.5211 9.71 76.6411 9.71C76.9011 9.71 76.9911 9.61 77.0311 9.48C77.0711 9.36 77.0711 9.12 77.0711 8.9ZM94.0957 8.92V6.62C94.0957 6.14 94.0957 5.97 94.0657 5.84C94.0257 5.69 93.9557 5.66 93.8657 5.66C93.8057 5.66 93.7257 5.67 93.6657 5.69C93.5357 5.73 93.4357 5.71 93.4057 5.63C93.3857 5.57 93.4057 5.48 93.5157 5.43L94.6957 4.93C94.8757 4.85 94.9557 4.91 94.9557 5.04V8.9C94.9557 9.17 94.9457 9.3 95.0357 9.48C95.1057 9.59 95.2457 9.7 95.4657 9.7C95.5857 9.7 95.6657 9.76 95.6657 9.85C95.6657 9.94 95.6057 10 95.4657 10H93.5757C93.4257 10 93.3757 9.94 93.3757 9.85C93.3757 9.76 93.4457 9.7 93.5657 9.7C93.6557 9.7 93.8357 9.67 93.9257 9.63C94.0357 9.57 94.0957 9.49 94.0957 8.92ZM94.5157 4.02C94.1557 4.02 93.9057 3.75 93.9057 3.44C93.9057 3.17 94.1557 2.88 94.5157 2.88C94.8657 2.88 95.1057 3.17 95.1057 3.44C95.1057 3.75 94.8657 4.02 94.5157 4.02ZM109.683 10.01C109.643 10.1 109.613 10.13 109.533 10.13C109.453 10.13 109.423 10.07 109.423 9.97V8.64C109.423 8.56 109.453 8.51 109.543 8.51C109.653 8.51 109.663 8.58 109.683 8.65C109.953 9.59 110.533 9.79 111.143 9.79C111.693 9.79 111.963 9.31 111.963 8.87C111.963 8.4 111.663 8.11 110.963 7.8C110.153 7.45 109.413 7.03 109.413 6.2C109.413 5.45 110.093 4.94 110.963 4.94C111.233 4.94 111.493 5 111.763 5.06C111.893 5.09 111.993 5.12 112.093 5.12C112.143 5.12 112.193 5.06 112.223 4.98C112.243 4.93 112.283 4.87 112.373 4.87C112.473 4.87 112.503 4.94 112.503 5.02V6.32C112.503 6.41 112.443 6.46 112.363 6.46C112.253 6.46 112.243 6.39 112.223 6.31C112.023 5.49 111.423 5.29 110.973 5.29C110.543 5.29 110.183 5.58 110.183 6.04C110.183 6.48 110.503 6.81 111.343 7.15C112.463 7.61 112.823 8.14 112.823 8.73C112.823 9.6 111.983 10.15 111.093 10.15C110.723 10.15 110.403 10.09 110.093 9.99C110.003 9.96 109.893 9.92 109.813 9.92C109.763 9.92 109.713 9.94 109.683 10.01Z" fill="white"/>
<path d="M25.3201 33.76H13.8801C13.8401 34.44 12.7201 35.4 11.0401 35.4C9.52014 35.4 8.56014 34.88 8.56014 32.44V24.4C8.56014 23.08 7.44014 22.4 6.32014 22.2C5.36014 21.92 5.48014 20.28 7.00014 20.44C8.04014 20.48 12.0001 20.64 13.0001 21C13.6801 21.2 13.9601 21.52 13.9601 21.84C13.8801 22.24 13.8801 22.68 13.8801 23.16V25.28H25.3201V22.76C25.3201 21.48 24.2001 20.88 23.1201 20.64C22.2001 20.44 22.0801 18.88 23.5201 18.88C24.5201 18.88 28.8001 19.04 29.8001 19.36C30.5201 19.6 30.7601 19.96 30.6801 20.36C30.6401 20.76 30.6401 21.32 30.6401 22V31.52C30.6401 32.68 30.4801 33.6 30.1601 34.28C29.6401 35.4 26.8801 35.96 25.8001 34.84C25.4801 34.48 25.3601 34.2 25.3201 33.76ZM31.3201 46.28V53.36C31.3201 56.08 30.3201 57.48 28.1601 57.48C26.9201 57.48 25.4001 56.88 25.4001 54.8V46.16L15.5201 46.48C14.1601 46.52 13.6401 46.68 12.6001 47.12C11.4801 47.48 9.52014 47.28 6.96014 46.04C6.44014 45.8 5.96014 45.2 6.16014 44.68C6.36014 44.16 6.84014 44.24 8.60014 44.4C10.1201 44.68 12.7601 44.76 16.6401 44.72V39.68C14.2801 39.68 12.8801 39.72 11.7601 39.72C10.1201 39.76 9.24014 40 7.04014 40.56C6.08014 40.8 4.60014 40.52 1.44014 39.36C0.880137 39.08 0.640137 38.72 0.640137 38.36C0.640137 37.92 1.04014 37.56 1.60014 37.56C2.80014 37.56 5.24014 37.84 6.40014 37.88C7.24014 37.96 9.32014 37.96 10.4801 37.96H27.9201C29.9201 37.88 31.1201 37.8 31.4801 37.72C33.0001 37.12 33.4001 37 35.8801 37.08C38.3201 37.12 39.0801 37.84 39.0801 38.68C39.0801 39.2 38.5601 39.68 37.6001 39.76C36.5601 39.8 35.5601 39.8 34.5201 39.8C32.9601 39.68 31.2801 39.68 29.4401 39.68H22.3201V44.56C23.6801 44.48 24.8001 44.4 25.1601 44.32C26.1201 44.12 26.9201 43.92 27.9601 43.64C28.3601 43.44 32.4401 44 31.7601 44.76C31.4401 45.12 31.3201 45.6 31.3201 46.28ZM25.3201 32.08V26.96H13.8801V32.08H25.3201ZM70.4401 31C70.0801 32.4 69.6401 33.8 69.0001 35.08C70.3601 35 71.1601 34.92 71.4401 34.84C72.9601 34.24 73.3601 34.2 75.8401 34.28C78.2801 34.32 79.0401 34.96 79.0401 35.8C79.0401 36.36 78.5201 36.8 77.5601 36.88C76.5201 36.92 75.5201 36.92 74.4401 36.92C72.9201 36.8 71.2401 36.76 69.4001 36.76C65.8401 36.76 54.5601 36.8 51.3601 36.88C49.7201 36.92 49.2801 37.16 47.0801 37.68C46.1201 37.96 44.7201 37.64 41.5601 36.48C41.0001 36.2 40.7201 35.8 40.7201 35.48C40.7201 35.12 41.0801 34.84 41.6001 34.84C42.8401 34.84 45.2801 35.08 46.4401 35.16C47.2801 35.2 49.3601 35.2 50.5201 35.2L64.0801 35.16C64.0801 35.04 64.0801 34.92 64.1601 34.76C64.8001 32.08 65.5601 25.64 65.5201 22.76L55.8001 23.08C54.4401 23.16 53.4001 23.32 52.5601 23.6C51.6001 24 50.3201 23.8 47.9601 22.56C47.0401 22.08 46.8401 21.6 46.9601 21.36C47.2801 20.6 47.6401 20.88 49.2401 21C50.7601 21.2 53.0801 21.28 58.2401 21.2C63.2001 21.2 64.4401 21.08 65.2001 20.84C66.0001 20.56 68.0801 20.36 69.6801 20.36C70.3601 20.36 71.0001 20.4 71.3601 20.48C72.5601 20.72 72.8001 21.72 72.4401 22.12C72.0401 22.52 71.8401 23.04 71.7201 23.72C71.4801 24.96 70.7601 29.72 70.4401 31ZM71.3201 44.24V53.36C71.3201 56.08 70.3601 57.48 68.1601 57.48C66.9201 57.48 65.4001 56.88 65.4001 54.8V44.12L55.5201 44.44C54.1601 44.48 53.6401 44.64 52.6001 45.08C51.4801 45.44 49.9201 45.24 47.3601 44C46.8401 43.76 46.3601 43.16 46.5601 42.64C46.7601 42.12 47.2401 42.2 49.0001 42.36C50.6801 42.64 53.6401 42.72 58.1601 42.64C62.6001 42.52 64.5201 42.44 65.1601 42.28C66.1201 42.08 66.9201 41.88 67.9601 41.6C68.3601 41.4 72.4401 41.96 71.7601 42.72C71.4401 43.08 71.3201 43.56 71.3201 44.24ZM101.28 43.88C101.76 43.84 101.96 43.48 101.84 43.04C101.76 42.76 101.56 42.56 101.04 42.48C100.72 42.44 100.52 41.88 100.76 41.64C100.96 41.4 101.36 41.24 101.88 41.24C102.88 41.24 104.88 41.6 105.36 42.08C105.56 42.28 105.72 42.64 105.6 42.8C105.48 43 105.04 43.8 105.56 43.84C110.44 44.4 113.6 47.08 113.6 50.76C113.6 55.28 109.04 57.92 103.4 57.92C97.6401 57.92 93.2401 55.28 93.2401 50.76C93.2401 46.88 96.6001 44.36 101.28 43.88ZM100.6 31.36C100.16 31.2 99.4801 30.68 99.6401 30.04C99.7201 29.72 100.16 29.68 100.72 29.64C102.2 29.68 103.64 29.72 105.16 29.72C106.32 29.72 107.24 29.72 108.56 29.68V24.04C108.56 21.72 107.6 21.44 105.4 20.6C104.72 20.32 104.72 19.44 104.88 19.2C104.96 19 105.32 18.52 106.16 18.52C106.84 18.52 113.08 19.28 113.72 19.56C114.44 19.88 114.68 20.2 114.52 20.64C114.32 21.16 114.24 21.92 114.24 22.96V37.52C114.24 41.36 113.56 42.96 111.2 42.96C109.16 42.96 108.56 41.48 108.56 39.8V31.48H107.32C107.24 31.48 105.44 32.12 104.8 32.12C103.88 32.12 102.76 32.12 100.6 31.36ZM93.1601 34.32C90.6401 37.28 87.0801 40.32 83.6401 42.12C82.6401 42.68 81.2001 42.68 80.6401 41.76C80.4801 41.52 80.4001 41.24 80.4001 40.96C80.4001 40.32 80.7601 39.72 81.2801 39.4C85.6801 36.48 89.6801 31.48 91.8001 26.4C92.4401 24.96 92.2401 24.16 90.6401 23.32C90.1601 23.08 89.6001 22.44 89.9601 21.76C90.0801 21.52 90.6801 21.2 91.3601 21.28C93.3601 21.56 96.8001 23.24 97.6401 23.76C98.3201 24.16 98.8001 25.28 98.6801 25.52C97.8001 27.64 96.1201 30.4 94.8001 32.28L97.6401 34.52C97.9201 34.68 98.3601 34.76 98.5201 34.8C98.7201 34.84 99.9601 35 100.32 35.36C101.08 35.92 102.36 37.48 102.64 38.32C102.92 39.16 102.8 39.92 102.4 40.2C102.04 40.44 101.16 40.48 100.2 39.76C98.2801 38.36 95.1601 35.96 93.1601 34.32ZM103.36 55.92C106.24 55.92 107.72 53.76 107.72 50.72C107.72 47.52 106.2 45.52 103.36 45.52C100.68 45.52 99.0001 47.64 99.0001 50.72C99.0001 53.68 100.68 55.92 103.36 55.92Z" fill="white"/>
</svg>
