<svg width="120" height="60" viewBox="0 0 120 60" fill="none" xmlns="http://www.w3.org/2000/svg">
<path d="M7.47005 3.76V6.58C7.77005 6.63 8.14005 6.66 8.30005 6.66C8.95005 6.66 9.64005 6.2 9.64005 5.26C9.64005 4.26 8.98005 3.69 8.20005 3.69C7.94005 3.69 7.72005 3.7 7.47005 3.76ZM8.18005 10H5.85005C5.73005 10 5.68005 9.94 5.68005 9.84C5.68005 9.74 5.73005 9.68 5.85005 9.68H5.98005C6.19005 9.68 6.37005 9.58 6.46005 9.43C6.53005 9.32 6.57005 9.13 6.57005 8.74V4.56C6.57005 4.22 6.53005 4 6.47005 3.88C6.37005 3.66 6.18005 3.59 6.03005 3.59H5.88005C5.74005 3.59 5.68005 3.54 5.68005 3.44C5.68005 3.34 5.74005 3.28 5.88005 3.28H7.94005C8.55005 3.28 9.03005 3.35 9.37005 3.47C10.0901 3.73 10.6501 4.38 10.6501 5.17C10.6501 6.25 9.87005 7.07 8.51005 7.07C8.15005 7.07 7.85005 7.03 7.47005 6.96V8.74C7.47005 9.13 7.50005 9.32 7.57005 9.43C7.67005 9.58 7.84005 9.68 8.06005 9.68H8.18005C8.29005 9.68 8.35005 9.74 8.35005 9.84C8.35005 9.94 8.30005 10 8.18005 10ZM28.0149 7.8C28.0149 6.58 27.5349 5.34 26.4349 5.34C25.8149 5.34 25.1449 5.93 25.1449 7.28C25.1449 8.5 25.6249 9.75 26.7249 9.75C27.3549 9.75 28.0149 9.15 28.0149 7.8ZM28.9549 7.53C28.9549 8.92 28.0949 10.15 26.5349 10.15C25.1149 10.15 24.2049 8.89 24.2049 7.55C24.2049 6.16 25.0649 4.94 26.6249 4.94C28.0449 4.94 28.9549 6.19 28.9549 7.53ZM44.2169 2.96V8.9C44.2169 9.17 44.2069 9.3 44.2969 9.48C44.3669 9.59 44.5069 9.7 44.7269 9.7C44.8469 9.7 44.9269 9.76 44.9269 9.85C44.9269 9.94 44.8669 10 44.7269 10H42.8369C42.6869 10 42.6369 9.94 42.6369 9.85C42.6369 9.76 42.7069 9.7 42.8269 9.7C42.9169 9.7 43.0969 9.67 43.1869 9.63C43.2969 9.57 43.3569 9.49 43.3569 8.92V4.59C43.3569 4.19 43.3569 3.94 43.3369 3.81C43.3069 3.64 43.2469 3.58 43.1269 3.58C43.0669 3.58 42.9969 3.59 42.9269 3.61C42.8069 3.64 42.6969 3.64 42.6669 3.55C42.6369 3.47 42.6869 3.39 42.7969 3.34L43.9469 2.85C44.1269 2.77 44.2169 2.84 44.2169 2.96ZM62.9648 9.48C62.5748 9.99 62.2248 10.15 61.9348 10.15C61.6448 10.15 61.4448 10 61.3948 9.55C60.9148 9.85 60.4048 10.15 59.8048 10.15C59.0248 10.15 58.5548 9.49 58.5548 8.88C58.5548 8.31 58.8648 7.87 59.4148 7.55C59.7548 7.35 60.5748 7.1 61.3648 6.86V6.41C61.3648 5.55 60.9648 5.25 60.4848 5.25C60.1648 5.25 59.7048 5.42 59.7248 5.82L59.7348 6.05C59.7448 6.37 59.5248 6.56 59.2248 6.56C58.9248 6.56 58.7248 6.37 58.7248 6.07C58.7248 5.26 59.7348 4.94 60.5348 4.94C61.7448 4.94 62.2348 5.36 62.2348 6.38V8.49C62.2348 8.88 62.2448 9.11 62.2548 9.25C62.2648 9.4 62.2747 9.5 62.3548 9.5C62.4548 9.5 62.6248 9.37 62.7248 9.28C62.7948 9.22 62.8948 9.19 62.9648 9.24C63.0348 9.29 63.0448 9.37 62.9648 9.48ZM61.3648 9.13V7.2C60.7748 7.41 60.2348 7.62 60.0748 7.71C59.6248 7.95 59.4348 8.28 59.4348 8.69C59.4348 9.26 59.6748 9.57 60.1448 9.57C60.4148 9.57 60.9148 9.44 61.3648 9.13ZM77.071 8.9V6.82C77.071 6.66 77.071 6.01 77.041 5.86C77.011 5.69 76.921 5.66 76.841 5.66C76.781 5.66 76.711 5.67 76.641 5.69C76.511 5.73 76.421 5.71 76.391 5.64C76.361 5.56 76.371 5.49 76.481 5.44L77.6609 4.93C77.841 4.85 77.931 4.9 77.931 5.04V5.71C78.331 5.15 78.751 4.94 79.141 4.94C79.571 4.94 79.851 5.18 79.851 5.48C79.851 5.79 79.631 5.95 79.371 5.95C79.131 5.95 79.031 5.82 78.931 5.75C78.831 5.68 78.771 5.62 78.671 5.62C78.421 5.62 78.141 6 77.931 6.31V8.89C77.931 9.17 77.941 9.33 77.981 9.44C78.021 9.55 78.091 9.69 78.471 9.71C78.591 9.72 78.671 9.76 78.671 9.86C78.671 9.95 78.601 10 78.461 10H76.641C76.511 10 76.441 9.94 76.441 9.85C76.441 9.76 76.521 9.71 76.641 9.71C76.901 9.71 76.991 9.61 77.031 9.48C77.071 9.36 77.071 9.12 77.071 8.9ZM94.0956 8.92V6.62C94.0956 6.14 94.0956 5.97 94.0656 5.84C94.0256 5.69 93.9556 5.66 93.8656 5.66C93.8056 5.66 93.7255 5.67 93.6656 5.69C93.5356 5.73 93.4356 5.71 93.4056 5.63C93.3856 5.57 93.4056 5.48 93.5156 5.43L94.6956 4.93C94.8756 4.85 94.9556 4.91 94.9556 5.04V8.9C94.9556 9.17 94.9456 9.3 95.0356 9.48C95.1056 9.59 95.2456 9.7 95.4656 9.7C95.5856 9.7 95.6656 9.76 95.6656 9.85C95.6656 9.94 95.6056 10 95.4656 10H93.5756C93.4256 10 93.3756 9.94 93.3756 9.85C93.3756 9.76 93.4455 9.7 93.5656 9.7C93.6555 9.7 93.8356 9.67 93.9256 9.63C94.0356 9.57 94.0956 9.49 94.0956 8.92ZM94.5156 4.02C94.1556 4.02 93.9056 3.75 93.9056 3.44C93.9056 3.17 94.1556 2.88 94.5156 2.88C94.8656 2.88 95.1056 3.17 95.1056 3.44C95.1056 3.75 94.8656 4.02 94.5156 4.02ZM109.683 10.01C109.643 10.1 109.613 10.13 109.533 10.13C109.453 10.13 109.423 10.07 109.423 9.97V8.64C109.423 8.56 109.453 8.51 109.543 8.51C109.653 8.51 109.663 8.58 109.683 8.65C109.953 9.59 110.533 9.79 111.143 9.79C111.693 9.79 111.963 9.31 111.963 8.87C111.963 8.4 111.663 8.11 110.963 7.8C110.153 7.45 109.413 7.03 109.413 6.2C109.413 5.45 110.093 4.94 110.963 4.94C111.233 4.94 111.493 5 111.763 5.06C111.893 5.09 111.993 5.12 112.093 5.12C112.143 5.12 112.193 5.06 112.223 4.98C112.243 4.93 112.283 4.87 112.373 4.87C112.473 4.87 112.503 4.94 112.503 5.02V6.32C112.503 6.41 112.443 6.46 112.363 6.46C112.253 6.46 112.243 6.39 112.223 6.31C112.023 5.49 111.423 5.29 110.973 5.29C110.543 5.29 110.183 5.58 110.183 6.04C110.183 6.48 110.503 6.81 111.343 7.15C112.463 7.61 112.823 8.14 112.823 8.73C112.823 9.6 111.983 10.15 111.093 10.15C110.723 10.15 110.403 10.09 110.093 9.99C110.003 9.96 109.893 9.92 109.813 9.92C109.763 9.92 109.713 9.94 109.683 10.01Z" fill="#0C174F"/>
<path d="M25.32 33.76H13.88C13.84 34.44 12.72 35.4 11.04 35.4C9.52001 35.4 8.56002 34.88 8.56002 32.44V24.4C8.56002 23.08 7.44001 22.4 6.32001 22.2C5.36001 21.92 5.48001 20.28 7.00001 20.44C8.04001 20.48 12 20.64 13 21C13.68 21.2 13.96 21.52 13.96 21.84C13.88 22.24 13.88 22.68 13.88 23.16V25.28H25.32V22.76C25.32 21.48 24.2 20.88 23.12 20.64C22.2 20.44 22.08 18.88 23.52 18.88C24.52 18.88 28.8 19.04 29.8 19.36C30.52 19.6 30.76 19.96 30.68 20.36C30.64 20.76 30.64 21.32 30.64 22V31.52C30.64 32.68 30.48 33.6 30.16 34.28C29.64 35.4 26.88 35.96 25.8 34.84C25.48 34.48 25.36 34.2 25.32 33.76ZM31.32 46.28V53.36C31.32 56.08 30.32 57.48 28.16 57.48C26.92 57.48 25.4 56.88 25.4 54.8V46.16L15.52 46.48C14.16 46.52 13.64 46.68 12.6 47.12C11.48 47.48 9.52001 47.28 6.96001 46.04C6.44001 45.8 5.96001 45.2 6.16001 44.68C6.36001 44.16 6.84002 44.24 8.60002 44.4C10.12 44.68 12.76 44.76 16.64 44.72V39.68C14.28 39.68 12.88 39.72 11.76 39.72C10.12 39.76 9.24002 40 7.04001 40.56C6.08001 40.8 4.60001 40.52 1.44001 39.36C0.880015 39.08 0.640015 38.72 0.640015 38.36C0.640015 37.92 1.04001 37.56 1.60001 37.56C2.80001 37.56 5.24002 37.84 6.40001 37.88C7.24002 37.96 9.32001 37.96 10.48 37.96H27.92C29.92 37.88 31.12 37.8 31.48 37.72C33 37.12 33.4 37 35.88 37.08C38.32 37.12 39.08 37.84 39.08 38.68C39.08 39.2 38.56 39.68 37.6 39.76C36.56 39.8 35.56 39.8 34.52 39.8C32.96 39.68 31.28 39.68 29.44 39.68H22.32V44.56C23.68 44.48 24.8 44.4 25.16 44.32C26.12 44.12 26.92 43.92 27.96 43.64C28.36 43.44 32.44 44 31.76 44.76C31.44 45.12 31.32 45.6 31.32 46.28ZM25.32 32.08V26.96H13.88V32.08H25.32ZM70.44 31C70.08 32.4 69.64 33.8 69 35.08C70.36 35 71.16 34.92 71.44 34.84C72.96 34.24 73.36 34.2 75.84 34.28C78.28 34.32 79.04 34.96 79.04 35.8C79.04 36.36 78.52 36.8 77.56 36.88C76.52 36.92 75.52 36.92 74.44 36.92C72.92 36.8 71.24 36.76 69.4 36.76C65.84 36.76 54.56 36.8 51.36 36.88C49.72 36.92 49.28 37.16 47.08 37.68C46.12 37.96 44.72 37.64 41.56 36.48C41 36.2 40.72 35.8 40.72 35.48C40.72 35.12 41.08 34.84 41.6 34.84C42.84 34.84 45.28 35.08 46.44 35.16C47.28 35.2 49.36 35.2 50.52 35.2L64.08 35.16C64.08 35.04 64.08 34.92 64.16 34.76C64.8 32.08 65.56 25.64 65.52 22.76L55.8 23.08C54.44 23.16 53.4 23.32 52.56 23.6C51.6 24 50.32 23.8 47.96 22.56C47.04 22.08 46.84 21.6 46.96 21.36C47.28 20.6 47.64 20.88 49.24 21C50.76 21.2 53.08 21.28 58.24 21.2C63.2 21.2 64.44 21.08 65.2 20.84C66 20.56 68.08 20.36 69.68 20.36C70.36 20.36 71 20.4 71.36 20.48C72.56 20.72 72.8 21.72 72.44 22.12C72.04 22.52 71.84 23.04 71.72 23.72C71.48 24.96 70.76 29.72 70.44 31ZM71.32 44.24V53.36C71.32 56.08 70.36 57.48 68.16 57.48C66.92 57.48 65.4 56.88 65.4 54.8V44.12L55.52 44.44C54.16 44.48 53.64 44.64 52.6 45.08C51.48 45.44 49.92 45.24 47.36 44C46.84 43.76 46.36 43.16 46.56 42.64C46.76 42.12 47.24 42.2 49 42.36C50.68 42.64 53.64 42.72 58.16 42.64C62.6 42.52 64.52 42.44 65.16 42.28C66.12 42.08 66.92 41.88 67.96 41.6C68.36 41.4 72.44 41.96 71.76 42.72C71.44 43.08 71.32 43.56 71.32 44.24ZM101.28 43.88C101.76 43.84 101.96 43.48 101.84 43.04C101.76 42.76 101.56 42.56 101.04 42.48C100.72 42.44 100.52 41.88 100.76 41.64C100.96 41.4 101.36 41.24 101.88 41.24C102.88 41.24 104.88 41.6 105.36 42.08C105.56 42.28 105.72 42.64 105.6 42.8C105.48 43 105.04 43.8 105.56 43.84C110.44 44.4 113.6 47.08 113.6 50.76C113.6 55.28 109.04 57.92 103.4 57.92C97.64 57.92 93.24 55.28 93.24 50.76C93.24 46.88 96.6 44.36 101.28 43.88ZM100.6 31.36C100.16 31.2 99.48 30.68 99.64 30.04C99.72 29.72 100.16 29.68 100.72 29.64C102.2 29.68 103.64 29.72 105.16 29.72C106.32 29.72 107.24 29.72 108.56 29.68V24.04C108.56 21.72 107.6 21.44 105.4 20.6C104.72 20.32 104.72 19.44 104.88 19.2C104.96 19 105.32 18.52 106.16 18.52C106.84 18.52 113.08 19.28 113.72 19.56C114.44 19.88 114.68 20.2 114.52 20.64C114.32 21.16 114.24 21.92 114.24 22.96V37.52C114.24 41.36 113.56 42.96 111.2 42.96C109.16 42.96 108.56 41.48 108.56 39.8V31.48H107.32C107.24 31.48 105.44 32.12 104.8 32.12C103.88 32.12 102.76 32.12 100.6 31.36ZM93.16 34.32C90.64 37.28 87.08 40.32 83.64 42.12C82.64 42.68 81.2 42.68 80.64 41.76C80.48 41.52 80.4 41.24 80.4 40.96C80.4 40.32 80.76 39.72 81.28 39.4C85.68 36.48 89.68 31.48 91.8 26.4C92.44 24.96 92.24 24.16 90.64 23.32C90.16 23.08 89.6 22.44 89.96 21.76C90.08 21.52 90.68 21.2 91.36 21.28C93.36 21.56 96.8 23.24 97.64 23.76C98.32 24.16 98.8 25.28 98.68 25.52C97.8 27.64 96.12 30.4 94.8 32.28L97.64 34.52C97.92 34.68 98.36 34.76 98.52 34.8C98.72 34.84 99.96 35 100.32 35.36C101.08 35.92 102.36 37.48 102.64 38.32C102.92 39.16 102.8 39.92 102.4 40.2C102.04 40.44 101.16 40.48 100.2 39.76C98.28 38.36 95.16 35.96 93.16 34.32ZM103.36 55.92C106.24 55.92 107.72 53.76 107.72 50.72C107.72 47.52 106.2 45.52 103.36 45.52C100.68 45.52 99 47.64 99 50.72C99 53.68 100.68 55.92 103.36 55.92Z" fill="#0C174F"/>
</svg>
